<svg width="1600" height="300" viewBox="0 0 1600 300" fill="none" xmlns="http://www.w3.org/2000/svg">
<rect width="1600" height="300" fill="#F1F5F9"/>
<g clip-path="url(#clip0_190_2)">
<mask id="mask0_190_2" style="mask-type:alpha" maskUnits="userSpaceOnUse" x="620" y="120" width="360" height="60">
<path d="M980 120H620V180H980V120Z" fill="#D9D9D9"/>
</mask>
<g mask="url(#mask0_190_2)">
<path d="M705.93 142.339C709.218 142.339 712.018 143.593 714.33 146.1C716.674 148.574 717.846 151.618 717.846 155.232C717.846 158.846 716.674 161.907 714.33 164.414C712.018 166.888 709.218 168.125 705.93 168.125C702.511 168.125 699.874 166.937 698.018 164.56V177.209H691.718V143.023H698.018V145.904C699.874 143.528 702.511 142.339 705.93 142.339ZM699.923 160.214C701.193 161.484 702.804 162.118 704.758 162.118C706.711 162.118 708.323 161.484 709.593 160.214C710.895 158.911 711.546 157.251 711.546 155.232C711.546 153.214 710.895 151.57 709.593 150.3C708.323 148.998 706.711 148.346 704.758 148.346C702.804 148.346 701.193 148.998 699.923 150.3C698.653 151.57 698.018 153.214 698.018 155.232C698.018 157.251 698.653 158.911 699.923 160.214ZM740.994 143.023H747.148V166.27C747.148 170.046 745.894 172.928 743.387 174.914C740.913 176.9 737.917 177.893 734.401 177.893C731.764 177.893 729.436 177.388 727.417 176.379C725.431 175.37 723.901 173.888 722.827 171.935L728.199 168.858C729.436 171.137 731.568 172.277 734.596 172.277C736.582 172.277 738.145 171.756 739.285 170.714C740.424 169.672 740.994 168.191 740.994 166.27V163.632C739.138 166.107 736.534 167.344 733.18 167.344C729.729 167.344 726.831 166.139 724.487 163.73C722.175 161.288 721.02 158.325 721.02 154.842C721.02 151.391 722.192 148.444 724.536 146.002C726.88 143.56 729.762 142.339 733.18 142.339C736.534 142.339 739.138 143.577 740.994 146.051V143.023ZM729.224 159.677C730.527 160.914 732.171 161.532 734.157 161.532C736.143 161.532 737.771 160.914 739.041 159.677C740.343 158.407 740.994 156.795 740.994 154.842C740.994 152.921 740.343 151.342 739.041 150.104C737.771 148.835 736.143 148.2 734.157 148.2C732.171 148.2 730.527 148.835 729.224 150.104C727.955 151.342 727.32 152.921 727.32 154.842C727.32 156.795 727.955 158.407 729.224 159.677ZM751.59 175.793V169.737H773.811V175.793H751.59ZM793.882 143.023H800.182V167.442H793.882V164.56C791.993 166.937 789.34 168.125 785.921 168.125C782.665 168.125 779.865 166.888 777.521 164.414C775.209 161.907 774.054 158.846 774.054 155.232C774.054 151.618 775.209 148.574 777.521 146.1C779.865 143.593 782.665 142.339 785.921 142.339C789.34 142.339 791.993 143.528 793.882 145.904V143.023ZM782.258 160.214C783.528 161.484 785.14 162.118 787.093 162.118C789.047 162.118 790.658 161.484 791.928 160.214C793.23 158.911 793.882 157.251 793.882 155.232C793.882 153.214 793.23 151.57 791.928 150.3C790.658 148.998 789.047 148.346 787.093 148.346C785.14 148.346 783.528 148.998 782.258 150.3C780.988 151.57 780.354 153.214 780.354 155.232C780.354 157.251 780.988 158.911 782.258 160.214ZM819.471 142.339C822.141 142.339 824.339 143.235 826.064 145.025C827.822 146.816 828.702 149.291 828.702 152.449V167.442H822.402V153.23C822.402 151.602 821.962 150.365 821.083 149.518C820.204 148.639 819.032 148.2 817.567 148.2C815.939 148.2 814.636 148.704 813.66 149.714C812.683 150.723 812.195 152.237 812.195 154.256V167.442H805.895V143.023H812.195V145.758C813.725 143.479 816.15 142.339 819.471 142.339ZM852.639 143.023H858.939V167.442H852.639V164.56C850.75 166.937 848.097 168.125 844.678 168.125C841.422 168.125 838.622 166.888 836.278 164.414C833.967 161.907 832.811 158.846 832.811 155.232C832.811 151.618 833.967 148.574 836.278 146.1C838.622 143.593 841.422 142.339 844.678 142.339C848.097 142.339 850.75 143.528 852.639 145.904V143.023ZM841.015 160.214C842.285 161.484 843.897 162.118 845.85 162.118C847.804 162.118 849.415 161.484 850.685 160.214C851.988 158.911 852.639 157.251 852.639 155.232C852.639 153.214 851.988 151.57 850.685 150.3C849.415 148.998 847.804 148.346 845.85 148.346C843.897 148.346 842.285 148.998 841.015 150.3C839.746 151.57 839.111 153.214 839.111 155.232C839.111 157.251 839.746 158.911 841.015 160.214ZM864.652 167.442V131.791H870.952V167.442H864.652ZM892.639 143.023H899.378L890.49 167.442C889.22 170.958 887.527 173.498 885.411 175.06C883.327 176.656 880.722 177.372 877.597 177.209V171.349C879.29 171.381 880.625 171.023 881.601 170.274C882.611 169.525 883.408 168.321 883.995 166.66L873.983 143.023H880.869L887.218 159.432L892.639 143.023ZM916.344 149.079H910.825V159.237C910.825 160.084 911.037 160.702 911.46 161.093C911.883 161.484 912.502 161.711 913.316 161.777C914.13 161.809 915.139 161.793 916.344 161.728V167.442C912.014 167.93 908.953 167.523 907.162 166.221C905.404 164.918 904.525 162.591 904.525 159.237V149.079H900.276V143.023H904.525V138.091L910.825 136.186V143.023H916.344V149.079ZM923.911 140.093C922.869 140.093 921.958 139.718 921.176 138.97C920.428 138.188 920.053 137.277 920.053 136.235C920.053 135.193 920.428 134.281 921.176 133.5C921.958 132.718 922.869 132.328 923.911 132.328C924.986 132.328 925.897 132.718 926.646 133.5C927.428 134.281 927.818 135.193 927.818 136.235C927.818 137.277 927.428 138.188 926.646 138.97C925.897 139.718 924.986 140.093 923.911 140.093ZM920.786 167.442V143.023H927.086V167.442H920.786ZM944.475 168.125C940.796 168.125 937.72 166.888 935.245 164.414C932.803 161.939 931.582 158.879 931.582 155.232C931.582 151.586 932.803 148.525 935.245 146.051C937.72 143.577 940.796 142.339 944.475 142.339C946.852 142.339 949.017 142.909 950.971 144.049C952.924 145.188 954.406 146.718 955.415 148.639L949.994 151.814C949.506 150.804 948.757 150.007 947.748 149.421C946.771 148.835 945.664 148.542 944.427 148.542C942.538 148.542 940.975 149.177 939.738 150.446C938.501 151.684 937.882 153.279 937.882 155.232C937.882 157.153 938.501 158.749 939.738 160.018C940.975 161.256 942.538 161.874 944.427 161.874C945.696 161.874 946.82 161.598 947.796 161.044C948.806 160.458 949.555 159.66 950.043 158.651L955.513 161.777C954.438 163.698 952.924 165.244 950.971 166.416C949.017 167.556 946.852 168.125 944.475 168.125ZM964.608 149.958C964.608 150.609 965.032 151.146 965.878 151.57C966.757 151.96 967.815 152.318 969.053 152.644C970.29 152.937 971.527 153.328 972.764 153.816C974.001 154.272 975.043 155.053 975.89 156.16C976.769 157.267 977.208 158.651 977.208 160.311C977.208 162.818 976.264 164.756 974.376 166.123C972.52 167.458 970.192 168.125 967.392 168.125C962.378 168.125 958.96 166.188 957.136 162.314L962.606 159.237C963.322 161.353 964.918 162.411 967.392 162.411C969.639 162.411 970.762 161.711 970.762 160.311C970.762 159.66 970.322 159.139 969.443 158.749C968.597 158.325 967.555 157.951 966.318 157.625C965.081 157.3 963.843 156.893 962.606 156.404C961.369 155.916 960.311 155.151 959.432 154.109C958.585 153.035 958.162 151.7 958.162 150.104C958.162 147.695 959.041 145.807 960.799 144.439C962.59 143.039 964.804 142.339 967.441 142.339C969.427 142.339 971.234 142.795 972.862 143.707C974.49 144.586 975.776 145.856 976.72 147.516L971.348 150.446C970.567 148.786 969.264 147.956 967.441 147.956C966.627 147.956 965.943 148.135 965.39 148.493C964.869 148.851 964.608 149.339 964.608 149.958Z" fill="#1E1B4B"/>
<path fill-rule="evenodd" clip-rule="evenodd" d="M652.19 133.023H643.013V167.587H652.19V133.023Z" fill="#4F46E5"/>
<path fill-rule="evenodd" clip-rule="evenodd" d="M641.614 133.023H632.437V167.587H641.614V133.023Z" fill="#4F46E5"/>
<path fill-rule="evenodd" clip-rule="evenodd" d="M631.038 133.023H621.86V167.587H631.038V133.023Z" fill="#4F46E5"/>
<path fill-rule="evenodd" clip-rule="evenodd" d="M653.589 133.026V155.403C653.589 158.643 654.875 161.722 657.165 164.012C659.454 166.301 662.533 167.588 665.773 167.588H671.138V158.41H665.773C664.974 158.41 664.217 158.087 663.653 157.523C663.09 156.96 662.766 156.202 662.766 155.403V142.42C662.766 137.325 658.656 133.143 653.589 133.026V133.026Z" fill="#4F46E5"/>
</g>
</g>
<defs>
<clipPath id="clip0_190_2">
<rect width="360" height="60" fill="white" transform="translate(620 120)"/>
</clipPath>
</defs>
</svg>
